# File created by Blade
# Date/Time:  Wed Sep 24 20:26:02 2014
# Frame Rate: 120.000 fps
#------------------------------------------------------
:FULLY-SPECIFIED
:DEGREES
1068
root -4.322971 33.225720 -7.211078 331.306020 -74.770260 -323.999518
Spine -7.690297 13.022058 2.693708
Head -0.353696 57.888494 1.408935
LeftShoulder -17.048554 21.091744 2.244233
LeftArm 17.920171 16.187291 -74.759668
LeftForeArm 5.805914 -0.000000 18.581654
LeftHand -27.448055 -0.000000 6.785709
LeftHandThumb1 -26.253704 0.000000 33.147579
RightShoulder -18.859687 8.406286 -28.849947
RightArm -23.013329 -21.757844 87.110532
RightForeArm -24.328060 -0.000000 17.968407
RightHand -6.851248 0.000000 14.586899
RightHandThumb1 -24.326973 -0.000000 -32.862282
LeftUpLeg -12.070509 6.174762 -4.403212
LeftLeg 0.805210 -0.000000 -0.000000
LeftFoot 0.518242 10.274558 -16.840071
LeftToeBase -8.624545 -0.000000 0.000000
RightUpLeg -0.316179 -11.669850 -5.031263
RightLeg 1.035717 -0.000000 -0.000000
RightFoot -13.192120 -7.048383 -0.922999
RightToeBase 1.085076 -0.000000 -0.000000
1069
root -4.320829 33.210547 -7.199812 332.630803 -74.469812 -325.359345
Spine -7.693083 12.994430 2.761234
Head -0.381166 57.647904 1.456994
LeftShoulder -17.066778 21.148626 2.218509
LeftArm 17.993852 16.034826 -74.781172
LeftForeArm 6.185618 -0.000000 18.600749
LeftHand -27.165449 -0.000000 6.286966
LeftHandThumb1 -26.253704 0.000000 33.147579
RightShoulder -18.855082 8.416475 -28.840781
RightArm -22.945463 -21.812261 87.080835
RightForeArm -24.252713 -0.000000 18.040960
RightHand -6.979489 0.000000 14.627508
RightHandThumb1 -24.326973 -0.000000 -32.862282
LeftUpLeg -12.048711 6.126567 -4.381014
LeftLeg 0.834358 -0.000000 -0.000000
LeftFoot 0.457211 10.173074 -16.906250
LeftToeBase -8.717274 -0.000000 0.000000
RightUpLeg -0.258563 -11.702520 -4.870107
RightLeg 1.051079 -0.000000 -0.000000
RightFoot -13.212835 -7.502924 -1.059735
RightToeBase 1.101381 -0.000000 -0.000000
1070
root -4.321516 33.196110 -7.191033 333.889008 -74.198080 -326.682627
Spine -7.656196 12.988687 2.855654
Head -0.389296 57.410688 1.487223
LeftShoulder -17.053435 21.195463 2.201894
LeftArm 18.060234 16.115279 -74.781955
LeftForeArm 5.854924 -0.000000 18.712050
LeftHand -27.336815 -0.000000 7.012402
LeftHandThumb1 -26.253704 0.000000 33.147579
RightShoulder -18.859104 8.457216 -28.822299
RightArm -22.885174 -21.846673 87.050193
RightForeArm -24.419735 -0.000000 18.054626
RightHand -6.859711 -0.000000 14.536746
RightHandThumb1 -24.326973 -0.000000 -32.862282
LeftUpLeg -11.986600 6.123291 -4.330290
LeftLeg 0.848267 -0.000000 -0.000000
LeftFoot 0.364233 10.038956 -17.043471
LeftToeBase -8.768862 -0.000000 0.000000
RightUpLeg -0.164202 -11.794023 -4.696728
RightLeg 1.067088 -0.000000 -0.000000
RightFoot -13.241910 -7.829024 -1.186900
RightToeBase 1.100084 -0.000000 -0.000000
1071
root -4.319757 33.182948 -7.179289 335.151963 -73.888139 -328.000597
Spine -7.632631 12.972432 2.955192
Head -0.371385 57.178393 1.565354
LeftShoulder -17.012637 21.192642 2.199093
LeftArm 18.121788 16.352054 -74.757740
LeftForeArm 4.992164 -0.000000 18.809852
LeftHand -27.651236 -0.000000 8.190247
LeftHandThumb1 -26.253704 0.000000 33.147579
RightShoulder -18.857238 8.472216 -28.783687
RightArm -22.826380 -21.898373 86.989891
RightForeArm -24.441614 0.000000 18.139337
RightHand -6.874749 -0.000000 14.456911
RightHandThumb1 -24.326973 -0.000000 -32.862282
LeftUpLeg -11.945604 6.057069 -4.280783
LeftLeg 0.871287 -0.000000 -0.000000
LeftFoot 0.245042 9.956844 -17.125474
LeftToeBase -8.670919 -0.000000 0.000000
RightUpLeg -0.077935 -12.006957 -4.541487
RightLeg 1.081860 -0.000000 -0.000000
RightFoot -13.256009 -7.987171 -1.280378
RightToeBase 1.060805 -0.000000 -0.000000
1072
root -4.326909 33.170912 -7.166081 336.294329 -73.572183 -329.236364
Spine -7.586349 12.953987 3.056022
Head -0.296914 56.921558 1.653990
LeftShoulder -16.990145 21.253081 2.159349
LeftArm 18.167919 16.233742 -74.792481
LeftForeArm 5.048458 -0.000000 18.923608
LeftHand -27.853449 0.000000 8.238717
LeftHandThumb1 -26.253704 0.000000 33.147579
RightShoulder -18.863115 8.453985 -28.778481
RightArm -22.689628 -21.999045 86.966677
RightForeArm -24.436856 -0.000000 18.116008
RightHand -6.781572 -0.000000 14.468279
RightHandThumb1 -24.326973 -0.000000 -32.862282
LeftUpLeg -11.825515 6.022803 -4.230870
LeftLeg 0.856933 -0.000000 -0.000000
LeftFoot 0.116638 9.905939 -17.167937
LeftToeBase -8.599798 -0.000000 0.000000
RightUpLeg 0.092298 -12.231170 -4.407808
RightLeg 1.018580 -0.000000 -0.000000
RightFoot -13.214745 -8.183877 -1.384655
RightToeBase 0.941366 -0.000000 -0.000000
1073
root -4.332192 33.158264 -7.151232 337.336094 -73.265855 -330.343327
Spine -7.576075 12.935163 3.118795
Head -0.190457 56.705790 1.814837
LeftShoulder -16.953935 21.233190 2.186818
LeftArm 18.113072 16.310388 -74.803718
LeftForeArm 4.777352 -0.000000 19.048216
LeftHand -27.775508 -0.000000 8.462752
LeftHandThumb1 -26.253704 0.000000 33.147579
RightShoulder -18.841161 8.431285 -28.746905
RightArm -22.586107 -22.094311 86.955270
RightForeArm -24.438767 -0.000000 18.176747
RightHand -6.856281 -0.000000 14.348619
RightHandThumb1 -24.326973 -0.000000 -32.862282
LeftUpLeg -11.732790 6.021201 -4.201849
LeftLeg 0.842242 -0.000000 -0.000000
LeftFoot 0.087217 9.858684 -17.209463
LeftToeBase -8.989888 -0.000000 0.000000
RightUpLeg 0.227553 -12.361841 -4.292602
RightLeg 0.995101 -0.000000 -0.000000
RightFoot -13.294951 -8.281961 -1.280962
RightToeBase 1.045951 -0.000000 -0.000000
1074
root -4.338026 33.146028 -7.137275 338.309734 -72.979185 -331.381695
Spine -7.559484 12.955582 3.179305
Head -0.118763 56.475272 1.946515
LeftShoulder -16.880817 21.178016 2.249885
LeftArm 18.004308 16.294982 -74.881763
LeftForeArm 4.692166 -0.000000 19.137718
LeftHand -27.694233 -0.000000 8.499011
LeftHandThumb1 -26.253704 0.000000 33.147579
RightShoulder -18.866886 8.413863 -28.714866
RightArm -22.434352 -22.244940 86.939661
RightForeArm -24.425904 -0.000000 18.147080
RightHand -6.821899 -0.000000 14.359652
RightHandThumb1 -24.326973 -0.000000 -32.862282
LeftUpLeg -11.634836 5.999988 -4.156580
LeftLeg 0.840031 -0.000000 -0.000000
LeftFoot -0.144045 9.816398 -17.420664
LeftToeBase -8.861094 -0.000000 0.000000
RightUpLeg 0.358238 -12.396420 -4.167396
RightLeg 0.953124 -0.000000 -0.000000
RightFoot -13.271487 -8.550703 -1.367239
RightToeBase 0.968257 -0.000000 -0.000000
1075
root -4.343759 33.134569 -7.122037 339.319909 -72.652968 -332.435879
Spine -7.578408 12.910606 3.244291
Head 0.004154 56.276992 2.120884
LeftShoulder -16.928273 21.298864 2.218251
LeftArm 18.141395 16.354952 -74.848680
LeftForeArm 4.543695 -0.000000 19.197192
LeftHand -27.840076 -0.000000 8.775879
LeftHandThumb1 -26.253704 0.000000 33.147579
RightShoulder -18.838027 8.438139 -28.703087
RightArm -22.310764 -22.285865 86.912811
RightForeArm -24.476926 -0.000000 18.094498
RightHand -6.748263 -0.000000 14.609842
RightHandThumb1 -24.326973 -0.000000 -32.862282
LeftUpLeg -11.560663 5.941622 -4.106151
LeftLeg 0.831657 -0.000000 -0.000000
LeftFoot -0.382730 9.748911 -17.770386
LeftToeBase -8.753625 -0.000000 0.000000
RightUpLeg 0.484805 -12.469051 -4.035621
RightLeg 0.868233 -0.000000 -0.000000
RightFoot -13.238635 -8.848098 -1.412023
RightToeBase 0.960207 -0.000000 -0.000000
1076
root -4.344804 33.123108 -7.107716 340.233974 -72.352382 -333.348396
Spine -7.641219 12.927356 3.256390
Head 0.162784 56.084779 2.356599
LeftShoulder -16.895610 21.364070 2.255682
LeftArm 18.148379 16.327155 -74.887672
LeftForeArm 4.560996 -0.000000 19.334148
LeftHand -27.922430 -0.000000 8.803049
LeftHandThumb1 -26.253704 0.000000 33.147579
RightShoulder -18.849144 8.452191 -28.683670
RightArm -22.255271 -22.406225 86.942456
RightForeArm -24.508490 0.000000 18.161465
RightHand -6.848408 0.000000 14.511390
RightHandThumb1 -24.326973 -0.000000 -32.862282
LeftUpLeg -11.542388 5.948077 -4.077267
LeftLeg 0.851332 -0.000000 -0.000000
LeftFoot -0.606400 9.641028 -18.221175
LeftToeBase -8.657536 -0.000000 0.000000
RightUpLeg 0.545736 -12.452217 -3.900845
RightLeg 0.795812 -0.000000 -0.000000
RightFoot -13.201183 -9.254732 -1.503238
RightToeBase 0.915895 -0.000000 -0.000000
1077
root -4.349959 33.111711 -7.090751 341.042029 -72.037124 -334.169635
Spine -7.691659 12.912397 3.251106
Head 0.211154 55.846378 2.482509
LeftShoulder -16.894493 21.417964 2.291776
LeftArm 18.160592 16.254090 -74.951000
LeftForeArm 4.701326 -0.000000 19.368545
LeftHand -27.895984 -0.000000 9.018019
LeftHandThumb1 -26.253704 0.000000 33.147579
RightShoulder -18.830285 8.448616 -28.663395
RightArm -22.137144 -22.439132 86.944344
RightForeArm -24.521160 -0.000000 18.162443
RightHand -6.821820 0.000000 14.589303
RightHandThumb1 -24.326973 -0.000000 -32.862282
LeftUpLeg -11.491202 5.945848 -4.065014
LeftLeg 0.849174 -0.000000 -0.000000
LeftFoot -0.778856 9.487675 -18.525968
LeftToeBase -8.709212 -0.000000 0.000000
RightUpLeg 0.638147 -12.485420 -3.796034
RightLeg 0.705436 -0.000000 -0.000000
RightFoot -13.153213 -9.607926 -1.623949
RightToeBase 0.835488 -0.000000 -0.000000
1078
root -4.359082 33.099587 -7.077406 341.818410 -71.740971 -334.994064
Spine -7.686206 12.921740 3.257406
Head 0.249008 55.636360 2.611993
LeftShoulder -16.873347 21.406579 2.360601
LeftArm 18.113252 16.214083 -74.983503
LeftForeArm 5.168351 0.000000 19.414111
LeftHand -27.713411 -0.000000 8.415873
LeftHandThumb1 -26.253704 0.000000 33.147579
RightShoulder -18.856742 8.500590 -28.648650
RightArm -22.097821 -22.475402 86.982323
RightForeArm -24.765727 0.000000 18.170275
RightHand -6.523930 -0.000000 14.165198
RightHandThumb1 -24.326973 -0.000000 -32.862282
LeftUpLeg -11.407610 5.943433 -4.015219
LeftLeg 0.873309 -0.000000 -0.000000
LeftFoot -0.999315 9.352119 -18.769796
LeftToeBase -8.502840 -0.000000 0.000000
RightUpLeg 0.755558 -12.362680 -3.666350
RightLeg 0.639083 -0.000000 -0.000000
RightFoot -13.130000 -10.125763 -1.708451
RightToeBase 0.819688 -0.000000 -0.000000
1079
root -4.364368 33.089097 -7.060583 342.490851 -71.469350 -335.688187
Spine -7.702357 12.963079 3.240592
Head 0.216601 55.443859 2.668889
LeftShoulder -16.850566 21.437968 2.397221
LeftArm 18.155029 16.449232 -74.919832
LeftForeArm 4.751350 -0.000000 19.511455
LeftHand -28.003011 -0.000000 9.079509
LeftHandThumb1 -26.253704 0.000000 33.147579
RightShoulder -18.866914 8.531237 -28.616085
RightArm -22.006504 -22.591555 87.004076
RightForeArm -24.732047 -0.000000 18.183619
RightHand -6.488781 0.000000 14.289090
RightHandThumb1 -24.326973 -0.000000 -32.862282
LeftUpLeg -11.343539 5.988615 -3.994992
LeftLeg 0.882500 -0.000000 -0.000000
LeftFoot -1.122083 9.172292 -18.958759
LeftToeBase -8.396437 -0.000000 0.000000
RightUpLeg 0.807447 -12.378021 -3.554344
RightLeg 0.621824 -0.000000 -0.000000
RightFoot -13.113836 -10.512159 -1.788794
RightToeBase 0.742499 -0.000000 -0.000000
